<mxfile host="app.diagrams.net" modified="2023-08-28T15:05:36.385Z" agent="5.0 (Windows NT 10.0; Win64; x64) AppleWebKit/537.36 (KHTML, like Gecko) Chrome/116.0.0.0 Safari/537.36" etag="JvZZ7fbhbo44dMPqkDnE" version="20.3.2" type="github">
  <diagram id="C5RBs43oDa-KdzZeNtuy" name="Page-1">
    <mxGraphModel dx="2012" dy="1826" grid="1" gridSize="10" guides="1" tooltips="1" connect="1" arrows="1" fold="1" page="1" pageScale="1" pageWidth="827" pageHeight="1169" math="0" shadow="0">
      <root>
        <mxCell id="WIyWlLk6GJQsqaUBKTNV-0" />
        <mxCell id="WIyWlLk6GJQsqaUBKTNV-1" parent="WIyWlLk6GJQsqaUBKTNV-0" />
        <mxCell id="0tbiYb5gyjITaQfjTqEH-0" value="Создание снапшота" style="rounded=0;whiteSpace=wrap;html=1;" vertex="1" parent="WIyWlLk6GJQsqaUBKTNV-1">
          <mxGeometry x="191.25" y="220" width="120" height="60" as="geometry" />
        </mxCell>
        <mxCell id="0tbiYb5gyjITaQfjTqEH-5" style="edgeStyle=orthogonalEdgeStyle;rounded=0;orthogonalLoop=1;jettySize=auto;html=1;exitX=1;exitY=0.5;exitDx=0;exitDy=0;entryX=0;entryY=0.5;entryDx=0;entryDy=0;fontSize=10;" edge="1" parent="WIyWlLk6GJQsqaUBKTNV-1" source="0tbiYb5gyjITaQfjTqEH-1" target="0tbiYb5gyjITaQfjTqEH-4">
          <mxGeometry relative="1" as="geometry" />
        </mxCell>
        <mxCell id="0tbiYb5gyjITaQfjTqEH-1" value="Редактирование слоя" style="rounded=1;whiteSpace=wrap;html=1;" vertex="1" parent="WIyWlLk6GJQsqaUBKTNV-1">
          <mxGeometry x="-160" y="-20" width="120" height="60" as="geometry" />
        </mxCell>
        <mxCell id="0tbiYb5gyjITaQfjTqEH-3" value="Создание копии нового слоя" style="rounded=0;whiteSpace=wrap;html=1;fontSize=10;" vertex="1" parent="WIyWlLk6GJQsqaUBKTNV-1">
          <mxGeometry x="201.25" y="280" width="100" height="30" as="geometry" />
        </mxCell>
        <mxCell id="0tbiYb5gyjITaQfjTqEH-10" style="edgeStyle=orthogonalEdgeStyle;rounded=0;orthogonalLoop=1;jettySize=auto;html=1;exitX=1;exitY=0.5;exitDx=0;exitDy=0;entryX=0.5;entryY=0;entryDx=0;entryDy=0;fontSize=12;" edge="1" parent="WIyWlLk6GJQsqaUBKTNV-1" source="0tbiYb5gyjITaQfjTqEH-4" target="0tbiYb5gyjITaQfjTqEH-8">
          <mxGeometry relative="1" as="geometry" />
        </mxCell>
        <mxCell id="0tbiYb5gyjITaQfjTqEH-4" value="&lt;font style=&quot;font-size: 12px;&quot;&gt;Завершение редактирования&lt;/font&gt;" style="rounded=0;whiteSpace=wrap;html=1;fontSize=10;" vertex="1" parent="WIyWlLk6GJQsqaUBKTNV-1">
          <mxGeometry x="80" y="-20" width="120" height="60" as="geometry" />
        </mxCell>
        <mxCell id="0tbiYb5gyjITaQfjTqEH-11" style="edgeStyle=orthogonalEdgeStyle;rounded=0;orthogonalLoop=1;jettySize=auto;html=1;exitX=0;exitY=0.5;exitDx=0;exitDy=0;entryX=0.5;entryY=0;entryDx=0;entryDy=0;fontSize=12;" edge="1" parent="WIyWlLk6GJQsqaUBKTNV-1" source="0tbiYb5gyjITaQfjTqEH-8" target="0tbiYb5gyjITaQfjTqEH-0">
          <mxGeometry relative="1" as="geometry" />
        </mxCell>
        <mxCell id="0tbiYb5gyjITaQfjTqEH-14" value="Нет" style="edgeLabel;html=1;align=center;verticalAlign=middle;resizable=0;points=[];fontSize=12;" vertex="1" connectable="0" parent="0tbiYb5gyjITaQfjTqEH-11">
          <mxGeometry x="0.0481" y="-1" relative="1" as="geometry">
            <mxPoint as="offset" />
          </mxGeometry>
        </mxCell>
        <mxCell id="0tbiYb5gyjITaQfjTqEH-12" style="edgeStyle=orthogonalEdgeStyle;rounded=0;orthogonalLoop=1;jettySize=auto;html=1;exitX=1;exitY=0.5;exitDx=0;exitDy=0;entryX=0.5;entryY=0;entryDx=0;entryDy=0;fontSize=12;" edge="1" parent="WIyWlLk6GJQsqaUBKTNV-1" source="0tbiYb5gyjITaQfjTqEH-8" target="0tbiYb5gyjITaQfjTqEH-9">
          <mxGeometry relative="1" as="geometry" />
        </mxCell>
        <mxCell id="0tbiYb5gyjITaQfjTqEH-13" value="Да" style="edgeLabel;html=1;align=center;verticalAlign=middle;resizable=0;points=[];fontSize=12;" vertex="1" connectable="0" parent="0tbiYb5gyjITaQfjTqEH-12">
          <mxGeometry x="-0.1068" y="-3" relative="1" as="geometry">
            <mxPoint as="offset" />
          </mxGeometry>
        </mxCell>
        <mxCell id="0tbiYb5gyjITaQfjTqEH-8" value="Тот же слой?" style="rhombus;whiteSpace=wrap;html=1;fontSize=12;" vertex="1" parent="WIyWlLk6GJQsqaUBKTNV-1">
          <mxGeometry x="280" y="70" width="166.5" height="80" as="geometry" />
        </mxCell>
        <mxCell id="0tbiYb5gyjITaQfjTqEH-9" value="Обновление снапшота" style="rounded=0;whiteSpace=wrap;html=1;" vertex="1" parent="WIyWlLk6GJQsqaUBKTNV-1">
          <mxGeometry x="415.25" y="220" width="120" height="60" as="geometry" />
        </mxCell>
        <mxCell id="0tbiYb5gyjITaQfjTqEH-18" style="edgeStyle=orthogonalEdgeStyle;rounded=0;orthogonalLoop=1;jettySize=auto;html=1;exitX=1;exitY=0.5;exitDx=0;exitDy=0;entryX=0;entryY=0.5;entryDx=0;entryDy=0;fontSize=12;" edge="1" parent="WIyWlLk6GJQsqaUBKTNV-1" source="0tbiYb5gyjITaQfjTqEH-15" target="0tbiYb5gyjITaQfjTqEH-16">
          <mxGeometry relative="1" as="geometry" />
        </mxCell>
        <mxCell id="0tbiYb5gyjITaQfjTqEH-15" value="Применение снапшота" style="rounded=1;whiteSpace=wrap;html=1;fontSize=12;" vertex="1" parent="WIyWlLk6GJQsqaUBKTNV-1">
          <mxGeometry x="-160" y="360" width="120" height="60" as="geometry" />
        </mxCell>
        <mxCell id="0tbiYb5gyjITaQfjTqEH-16" value="Переложить копию слоя в целевую таблицу" style="rounded=0;whiteSpace=wrap;html=1;fontSize=12;" vertex="1" parent="WIyWlLk6GJQsqaUBKTNV-1">
          <mxGeometry x="80" y="360" width="120" height="60" as="geometry" />
        </mxCell>
      </root>
    </mxGraphModel>
  </diagram>
</mxfile>
